{
	"asset":{
		"generator":"Khronos glTF Blender I/O v4.3.47",
		"version":"2.0"
	},
	"scene":0,
	"scenes":[
		{
			"name":"Scene",
			"nodes":[
				0
			]
		}
	],
	"nodes":[
		{
			"mesh":0,
			"name":"wall_crossing_T",
			"translation":[
				0,
				0,
				-2.9787139892578125
			]
		}
	],
	"materials":[
		{
			"name":"texture",
			"pbrMetallicRoughness":{
				"baseColorTexture":{
					"index":0
				},
				"metallicFactor":0,
				"roughnessFactor":0.44999998807907104
			}
		}
	],
	"meshes":[
		{
			"name":"wall_crossing",
			"primitives":[
				{
					"attributes":{
						"POSITION":0,
						"NORMAL":1,
						"TEXCOORD_0":2
					},
					"indices":3,
					"material":0
				}
			]
		}
	],
	"textures":[
		{
			"sampler":0,
			"source":0
		}
	],
	"images":[
		{
			"mimeType":"image/png",
			"name":"dungeon_texture",
			"uri":"dungeon_texture.png"
		}
	],
	"accessors":[
		{
			"bufferView":0,
			"componentType":5126,
			"count":1145,
			"max":[
				2,
				4,
				2.00006103515625
			],
			"min":[
				-2,
				0,
				-0.5
			],
			"type":"VEC3"
		},
		{
			"bufferView":1,
			"componentType":5126,
			"count":1145,
			"type":"VEC3"
		},
		{
			"bufferView":2,
			"componentType":5126,
			"count":1145,
			"type":"VEC2"
		},
		{
			"bufferView":3,
			"componentType":5123,
			"count":1686,
			"type":"SCALAR"
		}
	],
	"bufferViews":[
		{
			"buffer":0,
			"byteLength":13740,
			"byteOffset":0,
			"target":34962
		},
		{
			"buffer":0,
			"byteLength":13740,
			"byteOffset":13740,
			"target":34962
		},
		{
			"buffer":0,
			"byteLength":9160,
			"byteOffset":27480,
			"target":34962
		},
		{
			"buffer":0,
			"byteLength":3372,
			"byteOffset":36640,
			"target":34963
		}
	],
	"samplers":[
		{
			"magFilter":9729,
			"minFilter":9987
		}
	],
	"buffers":[
		{
			"byteLength":40012,
			"uri":"wall_crossing_T.bin"
		}
	]
}
